<?xml version="1.0" encoding="utf-8"?>
<!-- Generator: Adobe Illustrator 24.0.2, SVG Export Plug-In . SVG Version: 6.00 Build 0)  -->
<svg version="1.1" id="Layer_1" xmlns="http://www.w3.org/2000/svg" xmlns:xlink="http://www.w3.org/1999/xlink" x="0px" y="0px"
	 viewBox="0 0 200 186" style="enable-background:new 0 0 200 186;" xml:space="preserve">
<style type="text/css">
	.st0{fill:none;}
	.st1{opacity:0.8;fill:#072C33;}
	.st2{opacity:0.9;fill:#5DB9CD;}
	.st3{opacity:0.8;fill:#998054;}
	.st4{opacity:0.8;fill:#CDBA5B;}
	.st5{opacity:0.8;fill:#CDBA5C;}
	.st6{fill:#8493A5;}
	.st7{opacity:0.8;fill:#332D14;}
</style>
<g>
	<g>
		<g>
			<rect x="50.67" y="43.64" class="st0" width="89.77" height="89.78"/>
			<g>
				<polygon class="st1" points="95.65,43.9 106.43,60.94 95.65,65.87 84.19,61.25 				"/>
				<polygon class="st1" points="63.77,57.22 84.17,61.26 79.4,72.66 68.05,77.56 				"/>
				<polygon class="st1" points="50.83,89.25 68.04,77.59 72.8,88.99 68.31,100.51 				"/>
				<polygon class="st2" points="64.52,120.97 68.32,100.53 79.78,105.17 84.81,116.45 				"/>
				<polygon class="st1" points="96.7,133.54 84.84,116.46 96.19,111.57 107.75,115.93 				"/>
				<polygon class="st1" points="128.26,119.48 107.78,115.92 112.28,104.41 123.51,99.24 				"/>
				<polygon class="st1" points="140.45,87.16 123.52,99.22 118.49,87.93 122.97,76.78 				"/>
				<polygon class="st1" points="126.03,55.76 122.96,76.75 111.14,71.92 106.43,60.94 				"/>
				<polygon class="st3" points="118.49,87.93 112.28,104.41 123.52,99.22 				"/>
				<polygon class="st3" points="111.14,71.92 118.49,87.93 122.96,76.75 				"/>
				<polygon class="st4" points="95.65,65.87 106.43,60.94 111.14,71.92 				"/>
				<polygon class="st4" points="79.4,72.66 84.17,61.26 95.65,65.87 				"/>
				<polygon class="st2" points="68.04,77.59 72.8,88.99 79.4,72.66 				"/>
				<polygon class="st4" points="68.32,100.53 72.8,88.99 79.78,105.17 				"/>
				<polygon class="st4" points="84.84,116.46 96.19,111.57 79.78,105.17 				"/>
				<polygon class="st2" points="107.78,115.92 112.28,104.41 96.19,111.57 				"/>
				<path class="st5" d="M63.77,57.22c0,0,12.36-13.51,31.88-13.32L84.17,61.26L63.77,57.22z"/>
				<path class="st2" d="M68.04,77.59L50.83,89.25c0,0-0.2-19.72,12.94-32.04L68.04,77.59z"/>
				<path class="st5" d="M68.32,100.53l-3.81,20.44c0,0-12.99-10.93-13.69-31.72L68.32,100.53z"/>
				<path class="st5" d="M84.84,116.46l11.86,17.08c0,0-17.7,1.3-32.18-12.57L84.84,116.46z"/>
				<path class="st5" d="M128.26,119.48l-20.48-3.56l-11.23,17.59C96.55,133.51,115.31,133.78,128.26,119.48z"/>
				<path class="st2" d="M123.52,99.22l16.93-12.06c0,0,1.26,18.24-12.19,32.33L123.52,99.22z"/>
				<path class="st5" d="M122.96,76.75l3.07-20.99c0,0,13.53,11.17,14.42,31.4"/>
				<path class="st2" d="M106.43,60.94L95.65,43.9c0,0,18.4-0.43,30.38,11.86L106.43,60.94z"/>
				<polygon class="st4" points="95.65,88.49 98.31,79.94 95.65,65.87 92.84,80.06 				"/>
				<polygon class="st4" points="95.65,88.49 102.88,83.32 108.59,70.88 98.32,79.97 				"/>
				<polygon class="st4" points="95.65,88.49 104.54,88.47 115.9,81.89 102.87,83.35 				"/>
				<polygon class="st4" points="95.65,88.49 102.9,93.63 115.96,94.86 104.51,88.49 				"/>
				<polygon class="st4" points="95.65,88.49 98.58,96.88 109.07,105.85 102.86,93.63 				"/>
				<polygon class="st4" points="95.65,88.49 93.16,97.02 96.19,111.57 98.54,96.87 				"/>
				<polygon class="st4" points="95.65,88.49 88.67,93.99 83.44,106.57 93.15,96.98 				"/>
				<polygon class="st4" points="95.65,88.49 86.78,88.92 75.74,96.01 88.68,93.95 				"/>
				<polygon class="st4" points="95.65,88.49 88.3,83.51 75.15,83.1 86.8,88.89 				"/>
				<polygon class="st4" points="95.65,88.49 92.84,80.06 81.85,71.63 88.34,83.51 				"/>
				<polygon class="st3" points="95.98,88.72 89.99,75.55 95.65,65.87 101,75.39 				"/>
				<polygon class="st4" points="95.98,88.72 82.66,83.7 79.4,72.66 89.99,75.55 				"/>
				<polygon class="st4" points="95.97,88.72 90.89,102.04 79.78,105.17 82.84,94.74 				"/>
				<polygon class="st3" points="95.97,88.72 109.38,93.55 112.28,104.41 101.94,101.66 				"/>
				<polygon class="st2" points="95.97,88.72 101,75.39 111.14,71.92 109.05,82.54 				"/>
				<polygon class="st4" points="95.97,88.72 109.05,82.54 118.49,87.93 109.38,93.55 				"/>
				<polygon class="st3" points="95.97,88.72 101.94,101.66 96.19,111.59 90.89,102.04 				"/>
				<polygon class="st3" points="95.97,88.72 82.81,94.74 72.8,88.99 82.63,83.72 				"/>
				<polygon class="st1" points="95.65,65.87 111.14,71.92 101,75.39 				"/>
				<polygon class="st3" points="89.99,75.55 95.65,65.87 79.4,72.66 				"/>
				<polygon class="st3" points="72.8,88.99 82.66,83.7 79.4,72.66 				"/>
				<polygon class="st6" points="82.84,94.74 79.79,105.1 72.85,89.06 				"/>
				<polygon class="st1" points="96.19,111.59 90.89,102.04 79.78,105.17 				"/>
				<polygon class="st6" points="101.94,101.66 96.19,111.59 112.28,104.41 				"/>
				<polygon class="st6" points="109.38,93.55 112.28,104.41 118.49,87.93 				"/>
				<polygon class="st6" points="111.14,71.92 109.05,82.54 118.49,87.93 				"/>
				<polygon class="st2" points="95.97,88.72 92.36,75.73 95.65,65.87 				"/>
				<polygon class="st3" points="118.49,87.93 108.95,85.25 95.97,88.72 109.13,91.24 				"/>
				<polygon class="st2" points="106.25,95.55 95.97,88.72 107.51,94.65 112.28,104.41 				"/>
				<polygon class="st2" points="96.19,111.59 99.6,101.66 96.25,92.44 93.14,101.78 				"/>
				<polygon class="st3" points="95.84,88.72 82.72,102.68 87.27,92.74 				"/>
				<polygon class="st3" points="50.83,89.25 65.6,84.42 72.55,89.08 65.84,94.23 				"/>
				<polygon class="st3" points="96.19,111.59 103.08,117.95 96.55,133.51 99.01,118.78 				"/>
				<polygon class="st7" points="112.28,104.41 113.97,111.84 128.26,119.48 120.92,104.65 				"/>
				<polygon class="st7" points="79.4,72.66 70.5,71.72 63.77,57.22 72.78,68.73 				"/>
				<polygon class="st7" points="96.01,111.84 90.51,118.31 96.55,133.51 97.81,118.31 				"/>
				<polygon class="st7" points="95.65,43.9 100.32,59.27 95.65,65.87 90.62,59.27 				"/>
				<path class="st4" d="M122.37,124.79c0,0-7.17,5.67-17.76,7.75l5.93-9.78L122.37,124.79z"/>
				<path class="st3" d="M68.35,124.25c0,0,9.9,7.91,22.15,8.94l-7.78-12.69L68.35,124.25z"/>
				<path class="st4" d="M51.29,94.53c0,0,1.08,12.22,10,23.12l3.18-14.97L51.29,94.53z"/>
			</g>
		</g>
	</g>
</g>
</svg>
